<svg width="168" height="247" viewBox="0 0 168 247" fill="none" xmlns="http://www.w3.org/2000/svg">
<path d="M83.0066 178.5C83.0066 151.5 106.507 131 132.007 131V99.9999C132.007 77.4999 162.507 77.4999 162.507 99.9999V176C161.377 261.584 3.82273 266.237 5.00664 176V88.4999C5.00664 63.4999 35.0066 63.9999 35.0066 88.4999L35.5066 129L35.0066 34.4999C35.0066 15.4999 67.0066 15.4999 67.0066 34.4999V113V26.9999C67.0066 -1.50005 99.0066 -3.99993 99.0066 29.5M99.0066 29.5V113M99.0066 29.5C99.0066 12 132.007 14.5 132.007 34.4999V61.4999" stroke="#1c1c1c" stroke-width="10"/>
</svg>
