<svg width="158" height="172" viewBox="0 0 158 172" fill="none" xmlns="http://www.w3.org/2000/svg">
<path fill-rule="evenodd" clip-rule="evenodd" d="M104.696 9.48853C104.487 9.8105 104.284 10.1397 104.086 10.4759C103.842 10.0285 103.59 9.59416 103.33 9.17298C99.8343 3.50919 94.5986 -0.141183 88.561 0.0041882C82.5675 0.148497 77.477 3.99645 74.139 9.66969C73.4391 10.8592 72.8024 12.1463 72.2341 13.5274C71.4926 11.8776 70.6513 10.3638 69.7191 8.99057C65.8336 3.26698 60.2173 -0.131276 54.04 0.00393691C47.8925 0.138499 42.4121 3.74638 38.6957 9.48853C36.5501 12.8035 34.9385 16.8791 33.9867 21.6356C30.3945 17.9699 25.8902 15.8978 21.04 16.0039C14.8925 16.1385 9.4121 19.7464 5.69566 25.4885C2.52178 30.3924 0.516242 36.9607 0.0867683 44.9356L0.00560015 44.9346C-0.00355029 45.6325 -0.00145574 46.321 0.0116533 47.0001C-0.00145574 47.6792 -0.00355029 48.3678 0.00560015 49.0657L0.0867683 49.0646C0.516242 57.0395 2.52178 63.6079 5.69566 68.5117C9.4121 74.2539 14.8925 77.8617 21.04 77.9963C27.2173 78.1315 32.8336 74.7333 36.7191 69.0097C37.1208 68.418 37.5055 67.8002 37.8727 67.1567C38.1375 67.6216 38.4119 68.0733 38.6957 68.5117C42.4121 74.2539 47.8925 77.8617 54.04 77.9963C60.2173 78.1315 65.8336 74.7333 69.7191 69.0097C70.6062 67.703 71.4108 66.269 72.1256 64.7117C74.5426 69.2039 78.7251 72.8609 84.2666 75.0962C81.591 77.108 79.2128 79.3998 77.1184 81.9364C68.8999 91.8904 65.7033 104.834 65.02 117.168L77.0016 117.832C77.61 106.85 80.4135 96.7933 86.372 89.5765C92.131 82.6013 101.48 77.5001 117.011 77.5001H118V65.5001H97.5108C85.3056 65.5001 81.7608 59.127 81.7608 55.2501C81.7608 51.3733 85.3056 45.0001 97.5108 45.0001H145.011V88.9718C144.66 113.302 135.924 130.886 123.475 142.375C110.933 153.949 94.2384 159.689 77.4832 159.53C60.7242 159.371 44.1967 153.314 31.9929 141.67C19.8772 130.11 11.6687 112.71 12.0102 89.0869L0.0114982 88.9134C-0.374707 115.622 8.99826 136.316 23.7091 150.352C38.3319 164.304 57.8761 171.345 77.3694 171.53C96.8666 171.715 116.605 165.043 131.613 151.194C146.627 137.338 156.529 116.644 157.004 89.5001H157.011V33.0001H137L142 32.9395C141.876 22.7623 139.577 14.6731 135.719 8.99057C131.834 3.26698 126.217 -0.131276 120.04 0.00393691C113.892 0.138499 108.412 3.74638 104.696 9.48853ZM79 32.2465C79.0001 32.4759 79.0016 32.7073 79.0043 32.9405L79 32.9406V38.224C83.7111 34.9587 90.032 33.0001 97.5108 33.0001H98.9997C98.8943 24.1049 97.0595 18.0538 94.8199 14.4248C92.5836 10.8013 90.265 9.96606 88.8017 10.0013C87.2942 10.0376 84.9373 11.0365 82.7577 14.7408C80.6535 18.3171 79.0047 24.0545 79 32.1767C79 32.1999 79 32.2232 79 32.2465ZM61.4455 14.6072C63.8899 18.208 65.8885 24.1984 66 33.0312V44.969C65.8885 53.8018 63.8899 59.7922 61.4455 63.393C59.0262 66.9567 56.3326 68.0441 54.2589 67.9987C52.1554 67.9527 49.4437 66.7137 47.0907 63.0782C44.7992 59.5377 43.0057 53.871 43 45.8273V45.7507C43.0001 45.5243 43.0017 45.2959 43.0047 45.0657L43 45.0656V32.9346L43.0047 32.9346C43.0017 32.7043 43.0001 32.476 43 32.2495V32.1729C43.0057 24.1292 44.7992 18.4626 47.0907 14.922C49.4437 11.2865 52.1554 10.0476 54.2589 10.0015C56.3326 9.95615 59.0262 11.0435 61.4455 14.6072ZM109 32.945L104.033 32.9998L104.005 33.0001H132C131.884 24.1844 129.887 18.2038 127.445 14.6072C125.026 11.0435 122.333 9.95615 120.259 10.0015C118.155 10.0476 115.444 11.2865 113.091 14.922C110.728 18.5733 108.894 24.4858 109.005 32.9346L109 32.9346L109 32.945ZM28.4455 30.6072C30.6977 33.9249 32.5715 39.2711 32.9394 47.0001C32.5715 54.7291 30.6977 60.0753 28.4455 63.393C26.0262 66.9567 23.3326 68.0441 21.2589 67.9987C19.1554 67.9527 16.4437 66.7137 14.0907 63.0782C11.9122 59.7123 10.1838 54.4248 10.0137 47.0001C10.1838 39.5755 11.9122 34.288 14.0907 30.922C16.4437 27.2865 19.1554 26.0476 21.2589 26.0015C23.3326 25.9562 26.0262 27.0435 28.4455 30.6072Z" fill="#1c1c1c"/>
</svg>
