<svg width="158" height="251" viewBox="0 0 158 251" fill="none" xmlns="http://www.w3.org/2000/svg">
<path d="M48.4616 61.859C47.9616 57.859 40.4616 40.3589 38.4616 21.3589C36.4616 2.35893 65.9616 -2.14106 71.9616 21.3589C77.9616 44.8589 95.4616 114.359 95.4616 114.359L120.462 16.8589C126.962 -2.64107 157.462 7.85893 151.462 27.3589L126.962 118.859M126.962 118.859H151.462L151.462 172.859C151.462 271.859 5.96158 266.359 5.96158 172.859L5.96159 127.359M126.962 118.859L90.4616 118.859C72.4616 118.859 72.4616 149.859 90.4616 149.859H114.962C84.9616 149.859 72.4616 171.359 72.4616 194.359M38.9616 101.359C38.9616 78.859 71.9616 79.359 71.9616 101.859V140.859M71.9616 134.859C71.9616 157.359 38.9616 157.359 38.9616 134.859M38.9616 134.859C38.9616 157.359 5.96159 156.359 5.96158 133.859M38.9616 134.859L38.9616 99.859M38.9616 117.859C38.9616 95.359 5.96159 96.359 5.96158 118.859L5.96158 130.859" stroke="#1c1c1c" stroke-width="10"/>
</svg>
